<svg width="263" height="320" viewBox="0 0 263 320" fill="none" xmlns="http://www.w3.org/2000/svg">
<path opacity="0.2" d="M12.9092 320C16.4503 320 19.3241 317.135 19.3241 313.612C19.3241 310.082 16.4503 307.216 12.9092 307.216C9.36811 307.216 6.49429 310.082 6.49429 313.612C6.49429 317.135 9.36811 320 12.9092 320ZM43.7419 292.76C49.2187 292.76 53.665 288.328 53.665 282.868C53.665 277.408 49.2187 272.983 43.7419 272.983C38.2651 272.983 33.8256 277.408 33.8256 282.868C33.8256 288.328 38.2651 292.76 43.7419 292.76ZM12.9092 295.737C20.0377 295.737 25.8184 289.974 25.8184 282.868C25.8184 275.762 20.0377 269.999 12.9092 269.999C5.78075 269.999 0 275.762 0 282.868C0 289.974 5.78075 295.737 12.9092 295.737ZM105.414 258.355C108.856 258.355 111.651 255.569 111.651 252.131C111.651 248.693 108.856 245.908 105.414 245.908C101.965 245.908 99.1709 248.693 99.1709 252.131C99.1709 255.569 101.965 258.355 105.414 258.355ZM74.5814 261.767C79.9195 261.767 84.2401 257.453 84.2401 252.131C84.2401 246.81 79.9195 242.496 74.5814 242.496C69.2433 242.496 64.9159 246.81 64.9159 252.131C64.9159 257.453 69.2433 261.767 74.5814 261.767ZM43.7419 263.38C49.9719 263.38 55.0326 258.349 55.0326 252.131C55.0326 245.914 49.9719 240.882 43.7419 240.882C37.5119 240.882 32.458 245.914 32.458 252.131C32.458 258.349 37.5119 263.38 43.7419 263.38ZM12.9092 265C20.0377 265 25.8184 259.238 25.8184 252.131C25.8184 245.025 20.0377 239.262 12.9092 239.262C5.78075 239.262 0 245.025 0 252.131C0 259.238 5.78075 265 12.9092 265ZM167.08 224.8C168.969 224.8 170.502 223.272 170.502 221.395C170.502 219.511 168.969 217.983 167.08 217.983C165.197 217.983 163.657 219.511 163.657 221.395C163.657 223.272 165.197 224.8 167.08 224.8ZM136.247 228.04C139.927 228.04 142.919 225.063 142.919 221.395C142.919 217.72 139.927 214.743 136.247 214.743C132.56 214.743 129.574 217.72 129.574 221.395C129.574 225.063 132.56 228.04 136.247 228.04ZM105.414 229.574C109.946 229.574 113.619 225.913 113.619 221.395C113.619 216.877 109.946 213.208 105.414 213.208C100.875 213.208 97.2088 216.877 97.2088 221.395C97.2088 225.913 100.875 229.574 105.414 229.574ZM74.5814 231.023C79.9195 231.023 84.2401 226.71 84.2401 221.395C84.2401 216.073 79.9195 211.759 74.5814 211.759C69.2433 211.759 64.9159 216.073 64.9159 221.395C64.9159 226.71 69.2433 231.023 74.5814 231.023ZM43.7419 232.643C49.9719 232.643 55.0326 227.605 55.0326 221.395C55.0326 215.177 49.9719 210.139 43.7419 210.139C37.5119 210.139 32.458 215.177 32.458 221.395C32.458 227.605 37.5119 232.643 43.7419 232.643ZM12.9092 234.264C20.0377 234.264 25.8184 228.501 25.8184 221.395C25.8184 214.282 20.0377 208.526 12.9092 208.526C5.78075 208.526 0 214.282 0 221.395C0 228.501 5.78075 234.264 12.9092 234.264ZM228.752 192.871C229.974 192.871 230.978 191.876 230.978 190.651C230.978 189.433 229.974 188.438 228.752 188.438C227.523 188.438 226.525 189.433 226.525 190.651C226.525 191.876 227.523 192.871 228.752 192.871ZM197.919 195.34C200.509 195.34 202.623 193.239 202.623 190.651C202.623 188.063 200.509 185.962 197.919 185.962C195.316 185.962 193.215 188.063 193.215 190.651C193.215 193.239 195.316 195.34 197.919 195.34ZM167.08 196.197C170.152 196.197 172.642 193.714 172.642 190.651C172.642 187.595 170.152 185.112 167.08 185.112C164.014 185.112 161.523 187.595 161.523 190.651C161.523 193.714 164.014 196.197 167.08 196.197ZM136.247 197.389C139.973 197.389 142.999 194.372 142.999 190.651C142.999 186.937 139.973 183.92 136.247 183.92C132.514 183.92 129.488 186.937 129.488 190.651C129.488 194.372 132.514 197.389 136.247 197.389ZM105.414 198.838C109.946 198.838 113.619 195.176 113.619 190.651C113.619 186.133 109.946 182.471 105.414 182.471C100.875 182.471 97.2088 186.133 97.2088 190.651C97.2088 195.176 100.875 198.838 105.414 198.838ZM74.5814 200.287C79.9195 200.287 84.2401 195.973 84.2401 190.651C84.2401 185.336 79.9195 181.022 74.5814 181.022C69.2433 181.022 64.9159 185.336 64.9159 190.651C64.9159 195.973 69.2433 200.287 74.5814 200.287ZM43.7419 201.907C49.9719 201.907 55.0326 196.868 55.0326 190.651C55.0326 184.441 49.9719 179.402 43.7419 179.402C37.5119 179.402 32.458 184.441 32.458 190.651C32.458 196.868 37.5119 201.907 43.7419 201.907ZM12.9092 203.527C20.0377 203.527 25.8184 197.764 25.8184 190.651C25.8184 183.545 20.0377 177.782 12.9092 177.782C5.78075 177.782 0 183.545 0 190.651C0 197.764 5.78075 203.527 12.9092 203.527ZM259.584 163.326C261.474 163.326 263 161.798 263 159.914C263 158.031 261.474 156.509 259.584 156.509C257.695 156.509 256.162 158.031 256.162 159.914C256.162 161.798 257.695 163.326 259.584 163.326ZM228.752 164.946C231.54 164.946 233.792 162.694 233.792 159.914C233.792 157.135 231.54 154.889 228.752 154.889C225.964 154.889 223.704 157.135 223.704 159.914C223.704 162.694 225.964 164.946 228.752 164.946ZM197.919 164.946C200.707 164.946 202.966 162.694 202.966 159.914C202.966 157.135 200.707 154.889 197.919 154.889C195.131 154.889 192.872 157.135 192.872 159.914C192.872 162.694 195.131 164.946 197.919 164.946ZM167.08 165.46C170.152 165.46 172.642 162.977 172.642 159.914C172.642 156.852 170.152 154.376 167.08 154.376C164.014 154.376 161.523 156.852 161.523 159.914C161.523 162.977 164.014 165.46 167.08 165.46ZM136.247 166.652C139.973 166.652 142.999 163.635 142.999 159.914C142.999 156.193 139.973 153.184 136.247 153.184C132.514 153.184 129.488 156.193 129.488 159.914C129.488 163.635 132.514 166.652 136.247 166.652ZM105.414 168.094C109.946 168.094 113.619 164.432 113.619 159.914C113.619 155.396 109.946 151.735 105.414 151.735C100.875 151.735 97.2088 155.396 97.2088 159.914C97.2088 164.432 100.875 168.094 105.414 168.094ZM74.5814 169.55C79.9195 169.55 84.2401 165.236 84.2401 159.914C84.2401 154.599 79.9195 150.286 74.5814 150.286C69.2433 150.286 64.9159 154.599 64.9159 159.914C64.9159 165.236 69.2433 169.55 74.5814 169.55ZM43.7419 171.163C49.9719 171.163 55.0326 166.132 55.0326 159.914C55.0326 153.697 49.9719 148.665 43.7419 148.665C37.5119 148.665 32.458 153.697 32.458 159.914C32.458 166.132 37.5119 171.163 43.7419 171.163ZM12.9092 172.783C20.0377 172.783 25.8184 167.021 25.8184 159.914C25.8184 152.808 20.0377 147.045 12.9092 147.045C5.78075 147.045 0 152.808 0 159.914C0 167.021 5.78075 172.783 12.9092 172.783ZM228.752 131.39C229.974 131.39 230.978 130.403 230.978 129.178C230.978 127.953 229.974 126.958 228.752 126.958C227.523 126.958 226.525 127.953 226.525 129.178C226.525 130.403 227.523 131.39 228.752 131.39ZM197.919 133.867C200.509 133.867 202.623 131.766 202.623 129.178C202.623 126.589 200.509 124.488 197.919 124.488C195.316 124.488 193.215 126.589 193.215 129.178C193.215 131.766 195.316 133.867 197.919 133.867ZM167.08 134.716C170.152 134.716 172.642 132.24 172.642 129.178C172.642 126.115 170.152 123.632 167.08 123.632C164.014 123.632 161.523 126.115 161.523 129.178C161.523 132.24 164.014 134.716 167.08 134.716ZM136.247 135.908C139.973 135.908 142.999 132.899 142.999 129.178C142.999 125.457 139.973 122.44 136.247 122.44C132.514 122.44 129.488 125.457 129.488 129.178C129.488 132.899 132.514 135.908 136.247 135.908ZM105.414 137.357C109.946 137.357 113.619 133.696 113.619 129.178C113.619 124.66 109.946 120.998 105.414 120.998C100.875 120.998 97.2088 124.66 97.2088 129.178C97.2088 133.696 100.875 137.357 105.414 137.357ZM74.5814 138.806C79.9195 138.806 84.2401 134.493 84.2401 129.178C84.2401 123.856 79.9195 119.542 74.5814 119.542C69.2433 119.542 64.9159 123.856 64.9159 129.178C64.9159 134.493 69.2433 138.806 74.5814 138.806ZM43.7419 140.426C49.9719 140.426 55.0326 135.388 55.0326 129.178C55.0326 122.96 49.9719 117.922 43.7419 117.922C37.5119 117.922 32.458 122.96 32.458 129.178C32.458 135.388 37.5119 140.426 43.7419 140.426ZM12.9092 142.047C20.0377 142.047 25.8184 136.284 25.8184 129.178C25.8184 122.071 20.0377 116.309 12.9092 116.309C5.78075 116.309 0 122.071 0 129.178C0 136.284 5.78075 142.047 12.9092 142.047ZM167.08 101.846C168.969 101.846 170.502 100.318 170.502 98.4407C170.502 96.5571 168.969 95.0292 167.08 95.0292C165.197 95.0292 163.657 96.5571 163.657 98.4407C163.657 100.318 165.197 101.846 167.08 101.846ZM136.247 105.086C139.927 105.086 142.919 102.109 142.919 98.4407C142.919 94.7657 139.927 91.789 136.247 91.789C132.56 91.789 129.574 94.7657 129.574 98.4407C129.574 102.109 132.56 105.086 136.247 105.086ZM105.414 106.621C109.946 106.621 113.619 102.959 113.619 98.4407C113.619 93.9162 109.946 90.2544 105.414 90.2544C100.875 90.2544 97.2088 93.9162 97.2088 98.4407C97.2088 102.959 100.875 106.621 105.414 106.621ZM74.5814 108.07C79.9195 108.07 84.2401 103.756 84.2401 98.4407C84.2401 93.1192 79.9195 88.8055 74.5814 88.8055C69.2433 88.8055 64.9159 93.1192 64.9159 98.4407C64.9159 103.756 69.2433 108.07 74.5814 108.07ZM43.7419 109.69C49.9719 109.69 55.0326 104.651 55.0326 98.4407C55.0326 92.2236 49.9719 87.1854 43.7419 87.1854C37.5119 87.1854 32.458 92.2236 32.458 98.4407C32.458 104.651 37.5119 109.69 43.7419 109.69ZM12.9092 111.31C20.0377 111.31 25.8184 105.547 25.8184 98.4407C25.8184 91.3279 20.0377 85.5652 12.9092 85.5652C5.78075 85.5652 0 91.3279 0 98.4407C0 105.547 5.78075 111.31 12.9092 111.31ZM105.414 73.9211C108.856 73.9211 111.651 71.1353 111.651 67.6974C111.651 64.2595 108.856 61.4737 105.414 61.4737C101.965 61.4737 99.1709 64.2595 99.1709 67.6974C99.1709 71.1353 101.965 73.9211 105.414 73.9211ZM74.5814 77.2471C79.8666 77.2471 84.1543 72.9728 84.1543 67.6974C84.1543 62.4286 79.8666 58.1543 74.5814 58.1543C69.2895 58.1543 65.0019 62.4286 65.0019 67.6974C65.0019 72.9728 69.2895 77.2471 74.5814 77.2471ZM43.7419 78.9529C49.9719 78.9529 55.0326 73.9146 55.0326 67.6974C55.0326 61.4868 49.9719 56.4485 43.7419 56.4485C37.5119 56.4485 32.458 61.4868 32.458 67.6974C32.458 73.9146 37.5119 78.9529 43.7419 78.9529ZM12.9092 80.5664C20.0377 80.5664 25.8184 74.8102 25.8184 67.6974C25.8184 60.5911 20.0377 54.8283 12.9092 54.8283C5.78075 54.8283 0 60.5911 0 67.6974C0 74.8102 5.78075 80.5664 12.9092 80.5664ZM74.5814 40.2009C76.3717 40.2009 77.8251 38.752 77.8251 36.9606C77.8251 35.1693 76.3717 33.7202 74.5814 33.7202C72.7778 33.7202 71.3308 35.1693 71.3308 36.9606C71.3308 38.752 72.7778 40.2009 74.5814 40.2009ZM43.7419 46.7671C49.1725 46.7671 53.5725 42.3743 53.5725 36.9606C53.5725 31.547 49.1725 27.154 43.7419 27.154C38.3179 27.154 33.9114 31.547 33.9114 36.9606C33.9114 42.3743 38.3179 46.7671 43.7419 46.7671ZM12.9092 49.744C19.9914 49.744 25.7326 44.0208 25.7326 36.9606C25.7326 29.9005 19.9914 24.1771 12.9092 24.1771C5.827 24.1771 0.085969 29.9005 0.085969 36.9606C0.085969 44.0208 5.827 49.744 12.9092 49.744ZM6.67267 6.22372C6.67267 2.78583 9.4606 0 12.9092 0C16.3512 0 19.1458 2.78583 19.1458 6.22372C19.1458 9.66162 16.3512 12.441 12.9092 12.441C9.4606 12.441 6.67267 9.66162 6.67267 6.22372Z" fill="#BE2623"/>
</svg>
