<svg width="263" height="320" viewBox="0 0 263 320" fill="none" xmlns="http://www.w3.org/2000/svg">
<path opacity="0.2" d="M250.091 320C246.55 320 243.676 317.135 243.676 313.612C243.676 310.082 246.55 307.216 250.091 307.216C253.632 307.216 256.506 310.082 256.506 313.612C256.506 317.135 253.632 320 250.091 320ZM219.258 292.76C213.781 292.76 209.335 288.328 209.335 282.868C209.335 277.408 213.781 272.983 219.258 272.983C224.735 272.983 229.174 277.408 229.174 282.868C229.174 288.328 224.735 292.76 219.258 292.76ZM250.091 295.737C242.962 295.737 237.182 289.974 237.182 282.868C237.182 275.762 242.962 269.999 250.091 269.999C257.219 269.999 263 275.762 263 282.868C263 289.974 257.219 295.737 250.091 295.737ZM157.586 258.355C154.144 258.355 151.349 255.569 151.349 252.131C151.349 248.693 154.144 245.908 157.586 245.908C161.035 245.908 163.829 248.693 163.829 252.131C163.829 255.569 161.035 258.355 157.586 258.355ZM188.419 261.767C183.081 261.767 178.76 257.453 178.76 252.131C178.76 246.81 183.081 242.496 188.419 242.496C193.757 242.496 198.084 246.81 198.084 252.131C198.084 257.453 193.757 261.767 188.419 261.767ZM219.258 263.38C213.028 263.38 207.967 258.349 207.967 252.131C207.967 245.914 213.028 240.882 219.258 240.882C225.488 240.882 230.542 245.914 230.542 252.131C230.542 258.349 225.488 263.38 219.258 263.38ZM250.091 265C242.962 265 237.182 259.238 237.182 252.131C237.182 245.025 242.962 239.262 250.091 239.262C257.219 239.262 263 245.025 263 252.131C263 259.238 257.219 265 250.091 265ZM95.9204 224.8C94.0309 224.8 92.4982 223.272 92.4982 221.395C92.4982 219.511 94.0309 217.983 95.9204 217.983C97.8033 217.983 99.3427 219.511 99.3427 221.395C99.3427 223.272 97.8033 224.8 95.9204 224.8ZM126.753 228.04C123.073 228.04 120.081 225.063 120.081 221.395C120.081 217.72 123.073 214.743 126.753 214.743C130.44 214.743 133.426 217.72 133.426 221.395C133.426 225.063 130.44 228.04 126.753 228.04ZM157.586 229.574C153.054 229.574 149.381 225.913 149.381 221.395C149.381 216.877 153.054 213.208 157.586 213.208C162.125 213.208 165.791 216.877 165.791 221.395C165.791 225.913 162.125 229.574 157.586 229.574ZM188.419 231.023C183.081 231.023 178.76 226.71 178.76 221.395C178.76 216.073 183.081 211.759 188.419 211.759C193.757 211.759 198.084 216.073 198.084 221.395C198.084 226.71 193.757 231.023 188.419 231.023ZM219.258 232.643C213.028 232.643 207.967 227.605 207.967 221.395C207.967 215.177 213.028 210.139 219.258 210.139C225.488 210.139 230.542 215.177 230.542 221.395C230.542 227.605 225.488 232.643 219.258 232.643ZM250.091 234.264C242.962 234.264 237.182 228.501 237.182 221.395C237.182 214.282 242.962 208.526 250.091 208.526C257.219 208.526 263 214.282 263 221.395C263 228.501 257.219 234.264 250.091 234.264ZM34.2484 192.871C33.0262 192.871 32.0219 191.876 32.0219 190.651C32.0219 189.433 33.0262 188.438 34.2484 188.438C35.4772 188.438 36.4747 189.433 36.4747 190.651C36.4747 191.876 35.4772 192.871 34.2484 192.871ZM65.0811 195.34C62.4913 195.34 60.3771 193.239 60.3771 190.651C60.3771 188.063 62.4913 185.962 65.0811 185.962C67.6841 185.962 69.785 188.063 69.785 190.651C69.785 193.239 67.6841 195.34 65.0811 195.34ZM95.9204 196.197C92.8483 196.197 90.3577 193.714 90.3577 190.651C90.3577 187.595 92.8483 185.112 95.9204 185.112C98.9858 185.112 101.477 187.595 101.477 190.651C101.477 193.714 98.9858 196.197 95.9204 196.197ZM126.753 197.389C123.027 197.389 120.001 194.372 120.001 190.651C120.001 186.937 123.027 183.92 126.753 183.92C130.486 183.92 133.512 186.937 133.512 190.651C133.512 194.372 130.486 197.389 126.753 197.389ZM157.586 198.838C153.054 198.838 149.381 195.176 149.381 190.651C149.381 186.133 153.054 182.471 157.586 182.471C162.125 182.471 165.791 186.133 165.791 190.651C165.791 195.176 162.125 198.838 157.586 198.838ZM188.419 200.287C183.081 200.287 178.76 195.973 178.76 190.651C178.76 185.336 183.081 181.022 188.419 181.022C193.757 181.022 198.084 185.336 198.084 190.651C198.084 195.973 193.757 200.287 188.419 200.287ZM219.258 201.907C213.028 201.907 207.967 196.868 207.967 190.651C207.967 184.441 213.028 179.402 219.258 179.402C225.488 179.402 230.542 184.441 230.542 190.651C230.542 196.868 225.488 201.907 219.258 201.907ZM250.091 203.527C242.962 203.527 237.182 197.764 237.182 190.651C237.182 183.545 242.962 177.782 250.091 177.782C257.219 177.782 263 183.545 263 190.651C263 197.764 257.219 203.527 250.091 203.527ZM3.41553 163.326C1.52606 163.326 0 161.798 0 159.914C0 158.031 1.52606 156.509 3.41553 156.509C5.30499 156.509 6.83783 158.031 6.83783 159.914C6.83783 161.798 5.30499 163.326 3.41553 163.326ZM34.2484 164.946C31.4604 164.946 29.2075 162.694 29.2075 159.914C29.2075 157.135 31.4604 154.889 34.2484 154.889C37.0363 154.889 39.2957 157.135 39.2957 159.914C39.2957 162.694 37.0363 164.946 34.2484 164.946ZM65.0811 164.946C62.2931 164.946 60.0338 162.694 60.0338 159.914C60.0338 157.135 62.2931 154.889 65.0811 154.889C67.869 154.889 70.1284 157.135 70.1284 159.914C70.1284 162.694 67.869 164.946 65.0811 164.946ZM95.9204 165.46C92.8483 165.46 90.3577 162.977 90.3577 159.914C90.3577 156.852 92.8483 154.376 95.9204 154.376C98.9858 154.376 101.477 156.852 101.477 159.914C101.477 162.977 98.9858 165.46 95.9204 165.46ZM126.753 166.652C123.027 166.652 120.001 163.635 120.001 159.914C120.001 156.193 123.027 153.184 126.753 153.184C130.486 153.184 133.512 156.193 133.512 159.914C133.512 163.635 130.486 166.652 126.753 166.652ZM157.586 168.094C153.054 168.094 149.381 164.432 149.381 159.914C149.381 155.396 153.054 151.735 157.586 151.735C162.125 151.735 165.791 155.396 165.791 159.914C165.791 164.432 162.125 168.094 157.586 168.094ZM188.419 169.55C183.081 169.55 178.76 165.236 178.76 159.914C178.76 154.599 183.081 150.286 188.419 150.286C193.757 150.286 198.084 154.599 198.084 159.914C198.084 165.236 193.757 169.55 188.419 169.55ZM219.258 171.163C213.028 171.163 207.967 166.132 207.967 159.914C207.967 153.697 213.028 148.665 219.258 148.665C225.488 148.665 230.542 153.697 230.542 159.914C230.542 166.132 225.488 171.163 219.258 171.163ZM250.091 172.783C242.962 172.783 237.182 167.021 237.182 159.914C237.182 152.808 242.962 147.045 250.091 147.045C257.219 147.045 263 152.808 263 159.914C263 167.021 257.219 172.783 250.091 172.783ZM34.2484 131.39C33.0262 131.39 32.0219 130.403 32.0219 129.178C32.0219 127.953 33.0262 126.958 34.2484 126.958C35.4772 126.958 36.4747 127.953 36.4747 129.178C36.4747 130.403 35.4772 131.39 34.2484 131.39ZM65.0811 133.867C62.4913 133.867 60.3771 131.766 60.3771 129.178C60.3771 126.589 62.4913 124.488 65.0811 124.488C67.6841 124.488 69.785 126.589 69.785 129.178C69.785 131.766 67.6841 133.867 65.0811 133.867ZM95.9204 134.716C92.8483 134.716 90.3577 132.24 90.3577 129.178C90.3577 126.115 92.8483 123.632 95.9204 123.632C98.9858 123.632 101.477 126.115 101.477 129.178C101.477 132.24 98.9858 134.716 95.9204 134.716ZM126.753 135.908C123.027 135.908 120.001 132.899 120.001 129.178C120.001 125.457 123.027 122.44 126.753 122.44C130.486 122.44 133.512 125.457 133.512 129.178C133.512 132.899 130.486 135.908 126.753 135.908ZM157.586 137.357C153.054 137.357 149.381 133.696 149.381 129.178C149.381 124.66 153.054 120.998 157.586 120.998C162.125 120.998 165.791 124.66 165.791 129.178C165.791 133.696 162.125 137.357 157.586 137.357ZM188.419 138.806C183.081 138.806 178.76 134.493 178.76 129.178C178.76 123.856 183.081 119.542 188.419 119.542C193.757 119.542 198.084 123.856 198.084 129.178C198.084 134.493 193.757 138.806 188.419 138.806ZM219.258 140.426C213.028 140.426 207.967 135.388 207.967 129.178C207.967 122.96 213.028 117.922 219.258 117.922C225.488 117.922 230.542 122.96 230.542 129.178C230.542 135.388 225.488 140.426 219.258 140.426ZM250.091 142.047C242.962 142.047 237.182 136.284 237.182 129.178C237.182 122.071 242.962 116.309 250.091 116.309C257.219 116.309 263 122.071 263 129.178C263 136.284 257.219 142.047 250.091 142.047ZM95.9204 101.846C94.0309 101.846 92.4982 100.318 92.4982 98.4407C92.4982 96.5571 94.0309 95.0292 95.9204 95.0292C97.8033 95.0292 99.3427 96.5571 99.3427 98.4407C99.3427 100.318 97.8033 101.846 95.9204 101.846ZM126.753 105.086C123.073 105.086 120.081 102.109 120.081 98.4407C120.081 94.7657 123.073 91.789 126.753 91.789C130.44 91.789 133.426 94.7657 133.426 98.4407C133.426 102.109 130.44 105.086 126.753 105.086ZM157.586 106.621C153.054 106.621 149.381 102.959 149.381 98.4407C149.381 93.9162 153.054 90.2544 157.586 90.2544C162.125 90.2544 165.791 93.9162 165.791 98.4407C165.791 102.959 162.125 106.621 157.586 106.621ZM188.419 108.07C183.081 108.07 178.76 103.756 178.76 98.4407C178.76 93.1192 183.081 88.8055 188.419 88.8055C193.757 88.8055 198.084 93.1192 198.084 98.4407C198.084 103.756 193.757 108.07 188.419 108.07ZM219.258 109.69C213.028 109.69 207.967 104.651 207.967 98.4407C207.967 92.2236 213.028 87.1854 219.258 87.1854C225.488 87.1854 230.542 92.2236 230.542 98.4407C230.542 104.651 225.488 109.69 219.258 109.69ZM250.091 111.31C242.962 111.31 237.182 105.547 237.182 98.4407C237.182 91.3279 242.962 85.5652 250.091 85.5652C257.219 85.5652 263 91.3279 263 98.4407C263 105.547 257.219 111.31 250.091 111.31ZM157.586 73.9211C154.144 73.9211 151.349 71.1353 151.349 67.6974C151.349 64.2595 154.144 61.4737 157.586 61.4737C161.035 61.4737 163.829 64.2595 163.829 67.6974C163.829 71.1353 161.035 73.9211 157.586 73.9211ZM188.419 77.2471C183.133 77.2471 178.846 72.9728 178.846 67.6974C178.846 62.4286 183.133 58.1543 188.419 58.1543C193.71 58.1543 197.998 62.4286 197.998 67.6974C197.998 72.9728 193.71 77.2471 188.419 77.2471ZM219.258 78.9529C213.028 78.9529 207.967 73.9146 207.967 67.6974C207.967 61.4868 213.028 56.4485 219.258 56.4485C225.488 56.4485 230.542 61.4868 230.542 67.6974C230.542 73.9146 225.488 78.9529 219.258 78.9529ZM250.091 80.5664C242.962 80.5664 237.182 74.8102 237.182 67.6974C237.182 60.5911 242.962 54.8283 250.091 54.8283C257.219 54.8283 263 60.5911 263 67.6974C263 74.8102 257.219 80.5664 250.091 80.5664ZM188.419 40.2009C186.628 40.2009 185.175 38.752 185.175 36.9606C185.175 35.1693 186.628 33.7202 188.419 33.7202C190.222 33.7202 191.669 35.1693 191.669 36.9606C191.669 38.752 190.222 40.2009 188.419 40.2009ZM219.258 46.7671C213.828 46.7671 209.427 42.3743 209.427 36.9606C209.427 31.547 213.828 27.154 219.258 27.154C224.682 27.154 229.089 31.547 229.089 36.9606C229.089 42.3743 224.682 46.7671 219.258 46.7671ZM250.091 49.744C243.009 49.744 237.267 44.0208 237.267 36.9606C237.267 29.9005 243.009 24.1771 250.091 24.1771C257.173 24.1771 262.914 29.9005 262.914 36.9606C262.914 44.0208 257.173 49.744 250.091 49.744ZM256.327 6.22372C256.327 2.78583 253.539 0 250.091 0C246.649 0 243.854 2.78583 243.854 6.22372C243.854 9.66162 246.649 12.441 250.091 12.441C253.539 12.441 256.327 9.66162 256.327 6.22372Z" fill="#BE2623"/>
</svg>
