<svg width="116" height="40" viewBox="0 0 116 40" fill="none" xmlns="http://www.w3.org/2000/svg">
<path d="M63.4957 13.2342C63.4957 13.3407 63.5018 13.5041 63.514 13.7244C63.5261 13.9472 63.5358 14.159 63.5431 14.36C63.548 14.5609 63.5516 14.7836 63.5541 15.0282C63.5589 15.2751 63.5504 15.4966 63.5285 15.6927C63.5067 15.8912 63.4751 16.0777 63.4338 16.252C63.3925 16.4263 63.3293 16.5607 63.2442 16.6551C63.1592 16.7495 63.0535 16.7967 62.9271 16.7967H58.8701C58.5858 16.5788 58.4436 15.7641 58.4436 14.3527C58.4436 13.837 58.446 13.2172 58.4509 12.4934C58.4582 11.7695 58.4618 11.2538 58.4618 10.9464V10.3254C58.4618 10.2721 58.457 10.1704 58.4472 10.0203C58.4375 9.87022 58.4363 9.7528 58.4436 9.66806C58.2055 10.5251 57.9151 11.7525 57.5724 13.3504C57.2273 14.9458 56.9892 16.0123 56.858 16.5498C56.7997 16.7144 56.5275 16.7967 56.0415 16.7967H52.8884C52.5045 16.7967 52.2797 16.6962 52.2141 16.4953L51.3575 12.7912C51.2822 12.4135 51.1983 12.0201 51.106 11.6109C51.0136 11.2042 50.9055 10.7406 50.7816 10.2201C50.6552 9.69954 50.5629 9.3146 50.5045 9.06523C50.4341 10.9585 50.3988 12.4014 50.3988 13.394V14.9555C50.3988 15.6528 50.4049 16.1781 50.4171 16.5316C50.3806 16.6623 50.315 16.7277 50.2202 16.7277H49.3818C49.0319 16.7277 48.5192 16.7301 47.8436 16.735C47.1681 16.7422 46.6553 16.7459 46.3054 16.7459C45.9846 16.7459 45.8242 16.6926 45.8242 16.5861V3.42915C45.8242 3.37588 45.8376 3.32989 45.8643 3.29115C45.891 3.25241 45.9324 3.22215 45.9882 3.20036C46.0441 3.18099 46.0988 3.16526 46.1523 3.15315C46.2057 3.14105 46.2738 3.13378 46.3564 3.13136C46.4415 3.12894 46.5095 3.12531 46.5605 3.12047C46.614 3.11805 46.6833 3.11805 46.7683 3.12047C46.8509 3.12531 46.9044 3.12773 46.9287 3.12773H47.9785C49.6674 3.12773 50.8581 3.15073 51.5507 3.19673C52.2408 3.24515 52.7706 3.26936 53.14 3.26936C53.2809 4.06103 53.5057 5.23642 53.8143 6.79555L54.4923 10.3254L55.9139 3.16041C55.9139 3.16041 55.9382 3.16647 55.9868 3.17857C56.033 3.19068 56.0682 3.19673 56.0925 3.19673C56.7268 3.19673 57.6648 3.18826 58.9065 3.17131C60.1459 3.15436 61.0827 3.14589 61.7169 3.14589H63.0364C63.2017 3.16284 63.2843 3.32746 63.2843 3.63977C63.4155 9.36786 63.486 12.566 63.4957 13.2342ZM71.8977 14.3527H69.1566C69.1153 14.4883 69.0752 14.6662 69.0363 14.8865C68.9974 15.1093 68.9622 15.2836 68.9306 15.4095C68.8966 15.5378 68.8419 15.6709 68.7666 15.8089C68.6888 15.9493 68.5709 16.051 68.413 16.114C68.255 16.1793 68.0521 16.212 67.8043 16.212H63.9587V15.9106C64.2746 14.9713 64.7326 13.5296 65.3329 11.5855C65.9355 9.64143 66.4033 8.16946 66.7362 7.16959V7.18775C66.9379 6.61397 67.2344 5.71578 67.6256 4.49317C67.6305 4.48107 67.639 4.46533 67.6512 4.44596C67.7046 4.35881 67.7557 4.29102 67.8043 4.2426L72.6085 4.27892C73.4274 4.27892 73.8782 4.35034 73.9609 4.49317V4.72196C73.973 4.77522 74.0386 4.9108 74.1577 5.12869C74.7336 6.88633 75.1552 8.16341 75.4225 8.95992V9.06523C75.4444 9.23712 75.4979 9.43323 75.5829 9.65354C75.6656 9.87143 75.764 10.1063 75.8782 10.358C75.9948 10.6074 76.0774 10.8035 76.126 10.9464L76.4796 12.2246C76.6886 12.9098 76.9948 13.8249 77.3982 14.9701V14.9555V15.1298C77.4152 15.2146 77.4589 15.3272 77.5294 15.4676C77.6023 15.6104 77.6473 15.7109 77.6643 15.769C77.6643 15.936 77.6303 16.0426 77.5622 16.0886C77.4942 16.137 77.3617 16.1612 77.1649 16.1612H73.035C72.9354 16.1491 72.871 16.1394 72.8418 16.1321C72.8126 16.1273 72.7665 16.1152 72.7033 16.0958C72.6401 16.0789 72.5951 16.0559 72.5684 16.0268C72.5417 15.9978 72.5259 15.959 72.521 15.9106L72.182 14.5633C72.1577 14.452 72.1346 14.389 72.1128 14.3745C72.0885 14.36 72.0168 14.3527 71.8977 14.3527ZM71.5405 10.1293C71.5065 9.96464 71.4554 9.69711 71.3874 9.3267C71.3169 8.95871 71.2501 8.63672 71.1869 8.36072C71.1213 8.08715 71.0496 7.83173 70.9719 7.59448V7.16959C70.9233 7.04612 70.8406 6.95775 70.724 6.90449V6.92265C70.5806 6.9517 70.4372 7.34753 70.2939 8.11015V8.53504C70.2841 8.57619 70.2574 8.61493 70.2137 8.65124C70.1724 8.68514 70.1517 8.70572 70.1517 8.71298C69.9573 9.57485 69.7981 10.2721 69.6742 10.8047C69.6742 10.8628 69.6584 10.9657 69.6268 11.1134C69.5976 11.2611 69.5831 11.347 69.5831 11.3712H71.792C71.792 11.2187 71.7385 10.9415 71.6316 10.5396V10.3435C71.6243 10.3266 71.6073 10.2927 71.5806 10.2418C71.5539 10.191 71.5405 10.1535 71.5405 10.1293ZM82.1842 16.2302H78.4298C78.3228 16.0535 78.2511 15.93 78.2147 15.8598V4.20992H82.1478C82.1648 4.20992 82.2122 4.2075 82.2899 4.20265C82.3677 4.20023 82.4272 4.20023 82.4685 4.20265C82.5099 4.2075 82.5682 4.21234 82.6435 4.21718C82.7164 4.22202 82.7772 4.23292 82.8258 4.24986C82.8719 4.26439 82.9205 4.28497 82.9716 4.3116C83.0226 4.33823 83.0639 4.37455 83.0955 4.42054C83.1295 4.46896 83.1514 4.52223 83.1611 4.58033V8.51688C83.358 8.1271 83.6325 7.56542 83.9849 6.83186C84.3397 6.0983 84.5997 5.56689 84.765 5.23763L85.2024 4.30434L86.048 4.27892C86.1647 4.27892 86.3433 4.28497 86.5839 4.29707C86.8245 4.30918 87.0006 4.31523 87.1124 4.31523H87.7904C87.839 4.31523 87.9083 4.3116 87.9982 4.30434C88.0905 4.29949 88.1574 4.29707 88.1987 4.29707H88.7163C88.7406 4.29707 88.7819 4.29102 88.8402 4.27892C89.8025 4.27892 90.2837 4.35034 90.2837 4.49317C90.2837 4.57549 90.2302 4.68686 90.1233 4.82727C89.8487 5.26063 89.3882 6.04867 88.7418 7.19138C88.0954 8.33651 87.5741 9.19839 87.178 9.77701L90.6555 15.7508C90.6555 15.7581 90.6555 15.7787 90.6555 15.8126C90.6555 15.8489 90.6555 15.8731 90.6555 15.8852C90.6555 15.8973 90.6543 15.9167 90.6518 15.9433C90.6494 15.9699 90.6445 15.9905 90.6372 16.005C90.6324 16.0196 90.6251 16.0377 90.6154 16.0595C90.6081 16.0789 90.5959 16.0958 90.5789 16.1103C90.5643 16.1249 90.5485 16.1418 90.5315 16.1612C89.9726 16.1249 89.1415 16.1067 88.0383 16.1067C87.89 16.1067 87.6616 16.1091 87.353 16.114C87.0444 16.1212 86.8159 16.1249 86.6677 16.1249H85.4575V15.8743C85.3628 15.7169 85.1586 15.4046 84.8452 14.9374C84.5317 14.4701 84.3032 14.1033 84.1599 13.837L83.1611 11.9378V15.8743C83.0785 16.1116 82.7529 16.2302 82.1842 16.2302ZM91.2606 15.8925V5.096C91.2606 4.74012 91.2751 4.53312 91.3043 4.47502C91.3578 4.3927 91.444 4.35155 91.5631 4.35155H91.7782C91.8729 4.35155 91.9373 4.3576 91.9714 4.3697H92.4343C93.0345 4.3697 93.9409 4.35397 95.1535 4.3225C96.3661 4.29344 97.275 4.27892 97.8801 4.27892H100.249C100.403 4.29586 100.479 4.37334 100.479 4.51133V7.47101C100.474 7.50732 100.464 7.53879 100.45 7.56542C100.435 7.59206 100.423 7.609 100.413 7.61627C100.404 7.62595 100.376 7.64653 100.33 7.678C100.281 7.71189 100.248 7.73732 100.231 7.75426H96.1013V8.85461H96.4913C96.8364 8.85461 97.3625 8.8425 98.0696 8.81829C98.7744 8.79408 99.3163 8.78198 99.6954 8.78198C99.863 8.78198 99.976 8.81466 100.034 8.88003C100.095 8.94539 100.125 9.03739 100.125 9.15602C100.125 9.18507 100.119 9.2347 100.107 9.30491C100.095 9.37754 100.089 9.42838 100.089 9.45744V9.79517C100.089 9.81695 100.091 9.86537 100.096 9.94043C100.104 10.0131 100.107 10.076 100.107 10.1293V10.3798C100.107 10.5082 100.113 10.6377 100.125 10.7684C100.135 10.8991 100.14 11.0117 100.14 11.1061V11.3349C100.111 11.4076 100.088 11.456 100.071 11.4802C100.054 11.502 100.025 11.5129 99.9833 11.5129V11.4947C99.7622 11.4947 99.3831 11.5104 98.846 11.5419C98.309 11.571 97.8801 11.5855 97.5593 11.5855H96.1377V12.7185C96.1839 12.7185 96.2544 12.7222 96.3491 12.7294C96.4439 12.7343 96.5156 12.7367 96.5642 12.7367C96.8315 12.7367 97.2264 12.7282 97.7489 12.7113C98.2713 12.6943 98.648 12.6858 98.8788 12.6858H100.016C100.325 12.6858 100.52 12.7209 100.603 12.7912C100.635 12.825 100.659 12.8602 100.676 12.8965V15.7327C100.676 15.8586 100.652 15.9542 100.603 16.0196C100.557 16.0825 100.468 16.1176 100.337 16.1249H91.5267L91.2606 15.8925Z" fill="#0D3745"/>
<path d="M51.9444 36.4698C51.2445 36.4408 50.6163 36.3802 50.0598 36.2882C49.5009 36.1987 48.9627 36.051 48.4451 35.8452C47.925 35.6418 47.4888 35.3852 47.1365 35.0753C46.7817 34.7654 46.4876 34.3684 46.2543 33.8842C46.0211 33.3976 45.8777 32.8359 45.8242 32.1992C45.8242 32.0854 45.8825 32.02 45.9992 32.0031C46.0356 32.0152 46.0952 32.0212 46.1778 32.0212C46.6711 32.0212 47.4183 32.0091 48.4195 31.9849C49.4232 31.9607 50.1716 31.9486 50.6649 31.9486C50.7889 31.9486 50.8861 31.9886 50.9565 32.0684C51.0294 32.1483 51.0878 32.2464 51.1315 32.3626C51.1752 32.4764 51.2287 32.5914 51.2919 32.7076C51.3526 32.8238 51.4596 32.9218 51.6127 33.0017C51.7633 33.0816 51.9577 33.1216 52.1959 33.1216C52.4851 33.1216 52.7414 33.0393 52.965 32.8746C53.1861 32.7124 53.2967 32.4933 53.2967 32.2173C53.2967 32.0333 53.2019 31.8639 53.0124 31.7089C52.8228 31.5564 52.5725 31.4317 52.2615 31.3349C51.9504 31.2356 51.654 31.1521 51.3721 31.0843C51.0902 31.0165 50.801 30.9584 50.5045 30.91C50.2081 30.8592 50.0355 30.8277 49.9869 30.8156C48.5459 30.4258 47.5095 29.9404 46.8777 29.3593C46.2458 28.7807 45.9299 27.9891 45.9299 26.9843C45.9299 26.275 46.0599 25.6383 46.32 25.0742C46.5824 24.5101 46.9238 24.0489 47.3442 23.6906C47.7646 23.3323 48.2628 23.0345 48.8387 22.7972C49.4147 22.5575 49.9967 22.3881 50.5847 22.2888C51.1704 22.192 51.7779 22.1436 52.4073 22.1436C54.0743 22.1436 55.4036 22.451 56.3951 23.066C56.7571 23.4267 57.022 23.7003 57.1897 23.8867C57.3598 24.0731 57.5238 24.2898 57.6818 24.5367C57.8373 24.7861 57.9467 25.0306 58.0098 25.2703C58.073 25.51 58.1155 25.8041 58.1374 26.1527L57.8203 26.4723C56.6028 26.5183 55.2383 26.5413 53.7268 26.5413C53.5349 26.5413 53.3818 26.5207 53.2675 26.4796C53.1509 26.4384 53.0731 26.3851 53.0343 26.3198C52.9954 26.2544 52.9577 26.1866 52.9213 26.1164C52.8824 26.0462 52.8459 25.9784 52.8119 25.9131C52.7803 25.8477 52.7123 25.7944 52.6078 25.7533C52.5033 25.7121 52.366 25.6915 52.1959 25.6915C52.1473 25.6915 52.0707 25.7 51.9662 25.717C51.8642 25.7339 51.7427 25.7617 51.6017 25.8005C51.4632 25.8392 51.3429 25.8985 51.2409 25.9784C51.1412 26.0583 51.0914 26.1515 51.0914 26.258C51.0914 26.3888 51.1582 26.5074 51.2919 26.6139C51.4255 26.7205 51.5665 26.7967 51.7147 26.8427C51.863 26.8911 52.0464 26.9432 52.2651 26.9989C52.4838 27.0546 52.6199 27.0909 52.6734 27.1078C53.9686 27.4347 54.7402 27.6356 54.988 27.7106C56.2881 28.1198 57.2079 28.6548 57.7474 29.3158C58.2456 29.9307 58.4946 30.7018 58.4946 31.629C58.4946 32.1907 58.4217 32.7027 58.2759 33.1652C58.1326 33.6251 57.9418 34.0149 57.7036 34.3345C57.4655 34.6541 57.169 34.9373 56.8142 35.1843C56.457 35.4336 56.0962 35.6322 55.7316 35.7798C55.3671 35.9275 54.954 36.0522 54.4923 36.1539C54.0282 36.2531 53.6017 36.3246 53.2129 36.3681C52.8241 36.4141 52.4012 36.448 51.9444 36.4698ZM58.8519 30.053V29.5191L58.8336 29.3267C58.9454 28.3631 59.0523 27.6925 59.1544 27.3148C59.3853 26.4263 59.7996 25.6843 60.3974 25.0887L60.6124 24.8744C60.8968 24.5428 61.3293 24.2595 61.9101 24.0247H62.2491C62.8299 23.7826 63.7849 23.5574 65.1142 23.3492C65.4471 23.3492 65.7958 23.3746 66.1603 23.4255C66.5248 23.4763 66.9294 23.5586 67.3741 23.6724C67.8213 23.7886 68.2502 23.9726 68.6609 24.2244C69.074 24.4738 69.4166 24.7728 69.6888 25.1214V25.372C70.6632 26.5825 71.1505 27.9419 71.1505 29.4501C71.1505 31.1473 70.758 32.5296 69.9731 33.5973L69.6195 34.044C69.3449 34.3805 69.0047 34.6698 68.5989 34.9119C68.1931 35.154 67.7617 35.338 67.3049 35.4639C66.848 35.5922 66.4106 35.683 65.9926 35.7363C65.5747 35.7895 65.1579 35.8162 64.7424 35.8162C64.13 35.8162 63.5468 35.7435 62.9927 35.5983C62.4387 35.453 61.9198 35.2266 61.4362 34.9192C60.9527 34.6117 60.5262 34.234 60.1568 33.7861C59.7899 33.3358 59.4922 32.7935 59.2638 32.1592C59.0353 31.5225 58.898 30.8204 58.8519 30.053ZM63.7436 29.2032V29.5918C63.7436 31.6714 64.1409 32.7112 64.9356 32.7112C65.1567 32.7112 65.3487 32.6701 65.5115 32.5877C65.6743 32.5054 65.8067 32.3783 65.9088 32.2064C66.0084 32.0346 66.0911 31.8602 66.1567 31.6835C66.2223 31.5068 66.2684 31.2853 66.2952 31.0189C66.3219 30.7526 66.3389 30.519 66.3462 30.3181C66.3559 30.1171 66.3608 29.875 66.3608 29.5918V29.2722C66.3608 28.9647 66.3426 28.6694 66.3061 28.3861C66.2721 28.1028 66.2113 27.8172 66.1239 27.5291C66.0388 27.2434 65.9076 27.0134 65.7302 26.8391C65.5528 26.6648 65.3365 26.5776 65.0814 26.5776C64.1895 26.5776 63.7436 27.4528 63.7436 29.2032ZM72.357 25.7968V25.815C72.3351 25.6964 72.3242 25.3599 72.3242 24.8054C72.3242 24.1663 72.3825 23.7874 72.4992 23.6688H77.3435V31.117C77.3435 31.8844 77.5683 32.2682 78.0179 32.2682C78.2074 32.2682 78.3641 32.1847 78.4881 32.0176C78.6144 31.8481 78.6776 31.6484 78.6776 31.4184V30.1074C78.7117 27.517 78.7286 26.2096 78.7286 26.1854C78.7286 25.1589 78.7177 24.4145 78.6958 23.952C78.6958 23.7874 78.7785 23.67 78.9437 23.5998H83.8901V24.9798C83.8148 27.2216 83.7674 28.6645 83.748 29.3085V29.8569C83.748 29.9271 83.7455 30.0215 83.7407 30.1401C83.7334 30.2587 83.7297 30.3423 83.7297 30.3907C83.7297 30.5916 83.7358 30.7333 83.748 30.8156V31.5056C83.748 32.3287 83.6654 32.9206 83.5001 33.2814V33.314C83.3106 33.7571 83.0372 34.1408 82.68 34.4652C82.3252 34.7872 81.9193 35.0378 81.4625 35.217C81.0056 35.3961 80.5366 35.5256 80.0555 35.6055C79.5743 35.6854 79.0676 35.7254 78.5355 35.7254C78.3678 35.7254 78.2426 35.7084 78.16 35.6745H77.9486C77.9486 35.7326 77.8587 35.7617 77.6789 35.7617V35.7798C77.5501 35.7847 77.171 35.7556 76.5416 35.6927H76.1333C75.7591 35.6515 75.3982 35.568 75.0507 35.4421C74.7032 35.3186 74.3667 35.1431 74.041 34.9155C73.7154 34.688 73.4287 34.418 73.1808 34.1057C72.9354 33.791 72.7349 33.4097 72.5794 32.9618C72.4263 32.5115 72.3412 32.02 72.3242 31.4874C72.3291 31.1799 72.3303 30.7551 72.3278 30.2127C72.3254 29.668 72.3266 29.1729 72.3315 28.7275C72.3363 28.282 72.3509 27.8486 72.3752 27.4274V27.1804C72.3752 27.1514 72.3789 27.1042 72.3862 27.0388C72.391 26.9735 72.3935 26.9262 72.3935 26.8972C72.3935 26.8076 72.3874 26.6745 72.3752 26.4977C72.3631 26.321 72.357 26.1878 72.357 26.0983V25.7968ZM94.0709 23.7414H97.1146C97.1851 23.7632 97.2398 23.8649 97.2786 24.0465C97.3175 24.2256 97.3406 24.452 97.3479 24.7256C97.3528 24.9967 97.3528 25.2558 97.3479 25.5027C97.3406 25.7521 97.3321 26.0063 97.3224 26.2653C97.3151 26.5268 97.3114 26.6902 97.3114 26.7556C97.2993 26.9904 97.2932 27.3209 97.2932 27.747V28.6875C97.2932 29.1015 97.2993 29.6692 97.3114 30.3907C97.3236 31.1122 97.3297 31.6436 97.3297 31.9849V35.2133C97.3054 35.4143 97.1389 35.5147 96.8303 35.5147H91.8474C91.7405 35.4905 91.6032 35.2424 91.4355 34.7703C91.3237 34.4556 91.1354 33.9411 90.8705 33.2269C90.6081 32.5127 90.3821 31.8844 90.1925 31.3421C90.003 30.8023 89.8305 30.2781 89.6749 29.7697C89.6579 30.1595 89.6397 30.7405 89.6203 31.5128C89.6032 32.2827 89.5862 32.8601 89.5692 33.2451V35.0535C89.5692 35.2303 89.5486 35.3525 89.5073 35.4203C89.4659 35.4881 89.3554 35.5426 89.1755 35.5837H85.5122L85.1185 35.1952C85.1477 34.2147 85.172 32.6773 85.1914 30.5832C85.2085 28.4914 85.2315 26.9432 85.2607 25.9385V24.0247C85.3215 23.8116 85.3931 23.7051 85.4758 23.7051V23.7414C85.8792 23.7414 86.5122 23.7293 87.3749 23.7051C88.2375 23.6809 88.8852 23.6688 89.3177 23.6688H90.8158C90.8207 23.6688 90.8292 23.6724 90.8414 23.6797C90.9483 23.7208 91.0078 23.768 91.02 23.8213L91.0273 23.883C91.2411 24.4568 91.4574 25.05 91.6761 25.6625C91.8972 26.2774 92.1585 27.0207 92.4598 27.8922C92.7636 28.7662 92.975 29.3678 93.094 29.6971V28.3861C93.2107 26.3065 93.269 24.8284 93.269 23.952C93.269 23.8576 93.3346 23.7983 93.4659 23.7741C93.5971 23.7523 93.7988 23.7414 94.0709 23.7414ZM101.726 23.6325H104.004C104.816 23.6325 105.546 23.6857 106.195 23.7923C106.846 23.8988 107.469 24.0888 108.065 24.3624C108.66 24.6336 109.157 24.987 109.555 25.4228C109.954 25.861 110.27 26.4287 110.503 27.126C110.736 27.8232 110.853 28.633 110.853 29.5554C110.853 30.2309 110.773 30.8592 110.612 31.4402C110.455 32.0212 110.236 32.5224 109.956 32.9436C109.677 33.3625 109.357 33.7365 108.998 34.0658C108.64 34.3926 108.25 34.6601 107.828 34.8683C107.407 35.0741 106.987 35.2327 106.566 35.3441C106.144 35.4578 105.722 35.5268 105.302 35.5511H99.196V23.7741C99.213 23.7741 99.2458 23.7777 99.2944 23.785C99.343 23.7898 99.3758 23.7923 99.3928 23.7923C99.648 23.7923 100.034 23.7656 100.552 23.7124C101.072 23.6591 101.463 23.6325 101.726 23.6325ZM103.683 32.7839H104.11C104.411 32.7839 104.678 32.7354 104.912 32.6386C105.142 32.5393 105.327 32.3989 105.466 32.2173C105.604 32.0333 105.72 31.8409 105.812 31.6399C105.904 31.439 105.971 31.2029 106.012 30.9318C106.054 30.6582 106.082 30.4197 106.096 30.2164C106.113 30.013 106.122 29.7806 106.122 29.5191V28.8836C106.114 28.8425 106.096 28.6415 106.067 28.2808C106.038 27.9201 105.972 27.6126 105.87 27.3584C105.775 27.1744 105.671 27.0158 105.557 26.8827C105.44 26.7495 105.326 26.6466 105.214 26.574C105.1 26.4989 104.967 26.442 104.817 26.4033C104.666 26.3646 104.528 26.3404 104.401 26.3307C104.277 26.3186 104.127 26.3125 103.949 26.3125V26.505H103.683V32.7839Z" fill="#0D3745"/>
<path d="M9.36282 36.8799C9.73665 36.8799 10.04 36.5776 10.04 36.2059C10.04 35.8334 9.73665 35.5311 9.36282 35.5311C8.98898 35.5311 8.6856 35.8334 8.6856 36.2059C8.6856 36.5776 8.98898 36.8799 9.36282 36.8799ZM12.6178 34.0059C13.196 34.0059 13.6654 33.5382 13.6654 32.9622C13.6654 32.3861 13.196 31.9191 12.6178 31.9191C12.0396 31.9191 11.5709 32.3861 11.5709 32.9622C11.5709 33.5382 12.0396 34.0059 12.6178 34.0059ZM9.36282 34.3199C10.1154 34.3199 10.7256 33.7119 10.7256 32.9622C10.7256 32.2124 10.1154 31.6044 9.36282 31.6044C8.61027 31.6044 8 32.2124 8 32.9622C8 33.7119 8.61027 34.3199 9.36282 34.3199ZM19.1285 30.3758C19.4919 30.3758 19.7869 30.0819 19.7869 29.7192C19.7869 29.3564 19.4919 29.0625 19.1285 29.0625C18.7644 29.0625 18.4694 29.3564 18.4694 29.7192C18.4694 30.0819 18.7644 30.3758 19.1285 30.3758ZM15.8735 30.7358C16.437 30.7358 16.8932 30.2806 16.8932 29.7192C16.8932 29.1577 16.437 28.7026 15.8735 28.7026C15.31 28.7026 14.8531 29.1577 14.8531 29.7192C14.8531 30.2806 15.31 30.7358 15.8735 30.7358ZM12.6178 30.906C13.2755 30.906 13.8097 30.3751 13.8097 29.7192C13.8097 29.0632 13.2755 28.5323 12.6178 28.5323C11.9601 28.5323 11.4266 29.0632 11.4266 29.7192C11.4266 30.3751 11.9601 30.906 12.6178 30.906ZM9.36282 31.077C10.1154 31.077 10.7256 30.4689 10.7256 29.7192C10.7256 28.9694 10.1154 28.3614 9.36282 28.3614C8.61027 28.3614 8 28.9694 8 29.7192C8 30.4689 8.61027 31.077 9.36282 31.077ZM25.6385 26.8354C25.8379 26.8354 25.9997 26.6742 25.9997 26.4762C25.9997 26.2774 25.8379 26.1162 25.6385 26.1162C25.4397 26.1162 25.2772 26.2774 25.2772 26.4762C25.2772 26.6742 25.4397 26.8354 25.6385 26.8354ZM22.3835 27.1773C22.7719 27.1773 23.0879 26.8632 23.0879 26.4762C23.0879 26.0884 22.7719 25.7743 22.3835 25.7743C21.9943 25.7743 21.6791 26.0884 21.6791 26.4762C21.6791 26.8632 21.9943 27.1773 22.3835 27.1773ZM19.1285 27.3392C19.6069 27.3392 19.9947 26.9529 19.9947 26.4762C19.9947 25.9995 19.6069 25.6124 19.1285 25.6124C18.6493 25.6124 18.2623 25.9995 18.2623 26.4762C18.2623 26.9529 18.6493 27.3392 19.1285 27.3392ZM15.8735 27.4921C16.437 27.4921 16.8932 27.0369 16.8932 26.4762C16.8932 25.9147 16.437 25.4596 15.8735 25.4596C15.31 25.4596 14.8531 25.9147 14.8531 26.4762C14.8531 27.0369 15.31 27.4921 15.8735 27.4921ZM12.6178 27.663C13.2755 27.663 13.8097 27.1315 13.8097 26.4762C13.8097 25.8202 13.2755 25.2886 12.6178 25.2886C11.9601 25.2886 11.4266 25.8202 11.4266 26.4762C11.4266 27.1315 11.9601 27.663 12.6178 27.663ZM9.36282 27.834C10.1154 27.834 10.7256 27.226 10.7256 26.4762C10.7256 25.7257 10.1154 25.1184 9.36282 25.1184C8.61027 25.1184 8 25.7257 8 26.4762C8 27.226 8.61027 27.834 9.36282 27.834ZM32.1491 23.4667C32.2782 23.4667 32.3842 23.3617 32.3842 23.2325C32.3842 23.1039 32.2782 22.999 32.1491 22.999C32.0194 22.999 31.9141 23.1039 31.9141 23.2325C31.9141 23.3617 32.0194 23.4667 32.1491 23.4667ZM28.8941 23.7272C29.1675 23.7272 29.3907 23.5056 29.3907 23.2325C29.3907 22.9594 29.1675 22.7377 28.8941 22.7377C28.6194 22.7377 28.3976 22.9594 28.3976 23.2325C28.3976 23.5056 28.6194 23.7272 28.8941 23.7272ZM25.6385 23.8176C25.9628 23.8176 26.2257 23.5556 26.2257 23.2325C26.2257 22.9101 25.9628 22.6481 25.6385 22.6481C25.3148 22.6481 25.0519 22.9101 25.0519 23.2325C25.0519 23.5556 25.3148 23.8176 25.6385 23.8176ZM22.3835 23.9433C22.7768 23.9433 23.0963 23.6251 23.0963 23.2325C23.0963 22.8406 22.7768 22.5223 22.3835 22.5223C21.9894 22.5223 21.67 22.8406 21.67 23.2325C21.67 23.6251 21.9894 23.9433 22.3835 23.9433ZM19.1285 24.0962C19.6069 24.0962 19.9947 23.7099 19.9947 23.2325C19.9947 22.7558 19.6069 22.3694 19.1285 22.3694C18.6493 22.3694 18.2623 22.7558 18.2623 23.2325C18.2623 23.7099 18.6493 24.0962 19.1285 24.0962ZM15.8735 24.2491C16.437 24.2491 16.8932 23.7939 16.8932 23.2325C16.8932 22.6717 16.437 22.2166 15.8735 22.2166C15.31 22.2166 14.8531 22.6717 14.8531 23.2325C14.8531 23.7939 15.31 24.2491 15.8735 24.2491ZM12.6178 24.42C13.2755 24.42 13.8097 23.8884 13.8097 23.2325C13.8097 22.5772 13.2755 22.0456 12.6178 22.0456C11.9601 22.0456 11.4266 22.5772 11.4266 23.2325C11.4266 23.8884 11.9601 24.42 12.6178 24.42ZM9.36282 24.591C10.1154 24.591 10.7256 23.9829 10.7256 23.2325C10.7256 22.4827 10.1154 21.8747 9.36282 21.8747C8.61027 21.8747 8 22.4827 8 23.2325C8 23.9829 8.61027 24.591 9.36282 24.591ZM35.4041 20.3494C35.6036 20.3494 35.7647 20.1882 35.7647 19.9895C35.7647 19.7908 35.6036 19.6302 35.4041 19.6302C35.2047 19.6302 35.0428 19.7908 35.0428 19.9895C35.0428 20.1882 35.2047 20.3494 35.4041 20.3494ZM32.1491 20.5204C32.4435 20.5204 32.6813 20.2827 32.6813 19.9895C32.6813 19.6963 32.4435 19.4593 32.1491 19.4593C31.8548 19.4593 31.6163 19.6963 31.6163 19.9895C31.6163 20.2827 31.8548 20.5204 32.1491 20.5204ZM28.8941 20.5204C29.1885 20.5204 29.427 20.2827 29.427 19.9895C29.427 19.6963 29.1885 19.4593 28.8941 19.4593C28.5998 19.4593 28.3613 19.6963 28.3613 19.9895C28.3613 20.2827 28.5998 20.5204 28.8941 20.5204ZM25.6385 20.5746C25.9628 20.5746 26.2257 20.3126 26.2257 19.9895C26.2257 19.6664 25.9628 19.4051 25.6385 19.4051C25.3148 19.4051 25.0519 19.6664 25.0519 19.9895C25.0519 20.3126 25.3148 20.5746 25.6385 20.5746ZM22.3835 20.7004C22.7768 20.7004 23.0963 20.3821 23.0963 19.9895C23.0963 19.5969 22.7768 19.2793 22.3835 19.2793C21.9894 19.2793 21.67 19.5969 21.67 19.9895C21.67 20.3821 21.9894 20.7004 22.3835 20.7004ZM19.1285 20.8525C19.6069 20.8525 19.9947 20.4662 19.9947 19.9895C19.9947 19.5128 19.6069 19.1265 19.1285 19.1265C18.6493 19.1265 18.2623 19.5128 18.2623 19.9895C18.2623 20.4662 18.6493 20.8525 19.1285 20.8525ZM15.8735 21.0061C16.437 21.0061 16.8932 20.551 16.8932 19.9895C16.8932 19.4287 16.437 18.9736 15.8735 18.9736C15.31 18.9736 14.8531 19.4287 14.8531 19.9895C14.8531 20.551 15.31 21.0061 15.8735 21.0061ZM12.6178 21.1763C13.2755 21.1763 13.8097 20.6455 13.8097 19.9895C13.8097 19.3335 13.2755 18.8026 12.6178 18.8026C11.9601 18.8026 11.4266 19.3335 11.4266 19.9895C11.4266 20.6455 11.9601 21.1763 12.6178 21.1763ZM9.36282 21.3473C10.1154 21.3473 10.7256 20.7393 10.7256 19.9895C10.7256 19.2397 10.1154 18.6317 9.36282 18.6317C8.61027 18.6317 8 19.2397 8 19.9895C8 20.7393 8.61027 21.3473 9.36282 21.3473ZM32.1491 16.98C32.2782 16.98 32.3842 16.8758 32.3842 16.7465C32.3842 16.6173 32.2782 16.5123 32.1491 16.5123C32.0194 16.5123 31.9141 16.6173 31.9141 16.7465C31.9141 16.8758 32.0194 16.98 32.1491 16.98ZM28.8941 17.2413C29.1675 17.2413 29.3907 17.0196 29.3907 16.7465C29.3907 16.4734 29.1675 16.2517 28.8941 16.2517C28.6194 16.2517 28.3976 16.4734 28.3976 16.7465C28.3976 17.0196 28.6194 17.2413 28.8941 17.2413ZM25.6385 17.3309C25.9628 17.3309 26.2257 17.0696 26.2257 16.7465C26.2257 16.4234 25.9628 16.1614 25.6385 16.1614C25.3148 16.1614 25.0519 16.4234 25.0519 16.7465C25.0519 17.0696 25.3148 17.3309 25.6385 17.3309ZM22.3835 17.4567C22.7768 17.4567 23.0963 17.1391 23.0963 16.7465C23.0963 16.3539 22.7768 16.0356 22.3835 16.0356C21.9894 16.0356 21.67 16.3539 21.67 16.7465C21.67 17.1391 21.9894 17.4567 22.3835 17.4567ZM19.1285 17.6095C19.6069 17.6095 19.9947 17.2232 19.9947 16.7465C19.9947 16.2698 19.6069 15.8835 19.1285 15.8835C18.6493 15.8835 18.2623 16.2698 18.2623 16.7465C18.2623 17.2232 18.6493 17.6095 19.1285 17.6095ZM15.8735 17.7624C16.437 17.7624 16.8932 17.3073 16.8932 16.7465C16.8932 16.185 16.437 15.7299 15.8735 15.7299C15.31 15.7299 14.8531 16.185 14.8531 16.7465C14.8531 17.3073 15.31 17.7624 15.8735 17.7624ZM12.6178 17.9333C13.2755 17.9333 13.8097 17.4018 13.8097 16.7465C13.8097 16.0905 13.2755 15.559 12.6178 15.559C11.9601 15.559 11.4266 16.0905 11.4266 16.7465C11.4266 17.4018 11.9601 17.9333 12.6178 17.9333ZM9.36282 18.1043C10.1154 18.1043 10.7256 17.4963 10.7256 16.7465C10.7256 15.9967 10.1154 15.3887 9.36282 15.3887C8.61027 15.3887 8 15.9967 8 16.7465C8 17.4963 8.61027 18.1043 9.36282 18.1043ZM25.6385 13.8628C25.8379 13.8628 25.9997 13.7015 25.9997 13.5035C25.9997 13.3048 25.8379 13.1436 25.6385 13.1436C25.4397 13.1436 25.2772 13.3048 25.2772 13.5035C25.2772 13.7015 25.4397 13.8628 25.6385 13.8628ZM22.3835 14.2046C22.7719 14.2046 23.0879 13.8905 23.0879 13.5035C23.0879 13.1158 22.7719 12.8017 22.3835 12.8017C21.9943 12.8017 21.6791 13.1158 21.6791 13.5035C21.6791 13.8905 21.9943 14.2046 22.3835 14.2046ZM19.1285 14.3666C19.6069 14.3666 19.9947 13.9802 19.9947 13.5035C19.9947 13.0261 19.6069 12.6398 19.1285 12.6398C18.6493 12.6398 18.2623 13.0261 18.2623 13.5035C18.2623 13.9802 18.6493 14.3666 19.1285 14.3666ZM15.8735 14.5194C16.437 14.5194 16.8932 14.0643 16.8932 13.5035C16.8932 12.942 16.437 12.4869 15.8735 12.4869C15.31 12.4869 14.8531 12.942 14.8531 13.5035C14.8531 14.0643 15.31 14.5194 15.8735 14.5194ZM12.6178 14.6904C13.2755 14.6904 13.8097 14.1588 13.8097 13.5035C13.8097 12.8475 13.2755 12.316 12.6178 12.316C11.9601 12.316 11.4266 12.8475 11.4266 13.5035C11.4266 14.1588 11.9601 14.6904 12.6178 14.6904ZM9.36282 14.8613C10.1154 14.8613 10.7256 14.2533 10.7256 13.5035C10.7256 12.753 10.1154 12.145 9.36282 12.145C8.61027 12.145 8 12.753 8 13.5035C8 14.2533 8.61027 14.8613 9.36282 14.8613ZM19.1285 10.9165C19.4919 10.9165 19.7869 10.6225 19.7869 10.2598C19.7869 9.89709 19.4919 9.60316 19.1285 9.60316C18.7644 9.60316 18.4694 9.89709 18.4694 10.2598C18.4694 10.6225 18.7644 10.9165 19.1285 10.9165ZM15.8735 11.2674C16.4315 11.2674 16.8841 10.8164 16.8841 10.2598C16.8841 9.70392 16.4315 9.25294 15.8735 9.25294C15.3148 9.25294 14.8622 9.70392 14.8622 10.2598C14.8622 10.8164 15.3148 11.2674 15.8735 11.2674ZM12.6178 11.4474C13.2755 11.4474 13.8097 10.9158 13.8097 10.2598C13.8097 9.60455 13.2755 9.07296 12.6178 9.07296C11.9601 9.07296 11.4266 9.60455 11.4266 10.2598C11.4266 10.9158 11.9601 11.4474 12.6178 11.4474ZM9.36282 11.6176C10.1154 11.6176 10.7256 11.0103 10.7256 10.2598C10.7256 9.51005 10.1154 8.90203 9.36282 8.90203C8.61027 8.90203 8 9.51005 8 10.2598C8 11.0103 8.61027 11.6176 9.36282 11.6176ZM15.8735 7.35871C16.0625 7.35871 16.2159 7.20584 16.2159 7.01683C16.2159 6.82783 16.0625 6.67494 15.8735 6.67494C15.6831 6.67494 15.5303 6.82783 15.5303 7.01683C15.5303 7.20584 15.6831 7.35871 15.8735 7.35871ZM12.6178 8.0515C13.1911 8.0515 13.6556 7.58802 13.6556 7.01683C13.6556 6.44564 13.1911 5.98215 12.6178 5.98215C12.0452 5.98215 11.58 6.44564 11.58 7.01683C11.58 7.58802 12.0452 8.0515 12.6178 8.0515ZM9.36282 8.36558C10.1105 8.36558 10.7166 7.76174 10.7166 7.01683C10.7166 6.27192 10.1105 5.66806 9.36282 5.66806C8.61515 5.66806 8.00908 6.27192 8.00908 7.01683C8.00908 7.76174 8.61515 8.36558 9.36282 8.36558ZM8.70443 3.77383C8.70443 3.4111 8.99875 3.11717 9.36282 3.11717C9.72619 3.11717 10.0212 3.4111 10.0212 3.77383C10.0212 4.13655 9.72619 4.42981 9.36282 4.42981C8.99875 4.42981 8.70443 4.13655 8.70443 3.77383Z" fill="#BE2623"/>
</svg>
